<?xml version='1.0' encoding='iso-8859-1'?>
<!DOCTYPE svg PUBLIC '-//W3C//DTD SVG 1.1//EN' 'http://www.w3.org/Graphics/SVG/1.1/DTD/svg11.dtd'>
<svg version="1.1" xmlns="http://www.w3.org/2000/svg" viewBox="0 0 239.884 239.884" xmlns:xlink="http://www.w3.org/1999/xlink" enable-background="new 0 0 239.884 239.884">
  <g>
    <path d="M229.435,15.326C229.435,6.875,222.56,0,214.109,0H45.76c-8.45,0-15.325,6.875-15.325,15.326   c0,7.08,4.833,13.037,11.367,14.789v118.553l-29.099,28.279c-0.042,0.042-0.109,0.108-0.15,0.15   c-2.864,2.947-2.797,7.658,0.15,10.522s7.658,2.797,10.522-0.15l22.878-23.542c0.539,0.159,1.108,0.248,1.698,0.248h49.439   l-15.169,63.709h-7.805c-3.313,0-6,2.687-6,6s2.687,6,6,6h21.334c3.313,0,6-2.687,6-6s-2.687-6-6-6h-1.194l15.169-63.709h40.715   l15.169,63.709h-1.194c-3.313,0-6,2.687-6,6s2.687,6,6,6h21.334c3.313,0,6-2.687,6-6s-2.687-6-6-6h-7.805l-15.169-63.709h49.438   c3.313,0,6-2.687,6-6V30.114C224.602,28.363,229.435,22.406,229.435,15.326z M93.49,115.167c2.25-2.32,2.267-6.031,0-8.364   c-2.31-2.377-6.109-2.431-8.485-0.121l-31.202,30.323V30.651h152.265v121.523H57.525L93.49,115.167z M214.109,18.651H45.76   c-1.834,0-3.325-1.492-3.325-3.326S43.926,12,45.76,12h168.349c1.834,0,3.326,1.492,3.326,3.326S215.943,18.651,214.109,18.651z"/>
    <path d="M145.102,121.146h-9.167V91.413c0-3.313-2.687-6-6-6s-6,2.687-6,6v29.733h-1.863c-3.313,0-6,2.687-6,6s2.687,6,6,6h60.548   c3.313,0,6-2.687,6-6s-2.687-6-6-6h-4.352V68c0-3.313-2.687-6-6-6s-6,2.687-6,6v53.146h-9.166V60c0-3.313-2.687-6-6-6s-6,2.687-6,6   V121.146z"/>
  </g>
</svg>
